*********************************************************************

Brother Bear 2006 1080p BluRay x264 2Audio - alrmothe

*********************************************************************

Title : Brother Bear 2
YEAR: 2006
GENRE :  Animation | Adventure | Family   
imdb URL :http://www.imdb.com/title/tt0465925/
Format: Matroska
Overall bit rate: 8721 Kbps
Format version: Version 4 / Version 2
File size:  4.474 GiB
Duration:  1h 13mn
Sub:Arabic,English,French,Danish

*********************************************************************

Video
Format : AVC 
Format/Info : Advanced Video Codec 
Format profile : High@L4.1 
Format settings, CABAC : Yes 
Format settings, ReFrames : 4 frames  
Codec ID : V_MPEG4/ISO/AVC  
Bit rate : 7010 Kbps 
Width : 1920 pixels 
Height : 1080 pixels 
Display aspect ratio : 16:9 
Frame rate : 23.976 fps 
Color space : YUV 
Chroma subsampling : 4:2:0 
Bit depth : 8 bits 
Scan type : Progressive 
Bits/(Pixel*Frame) : 0.141 
Stream size: 3.51 GiB (79%)
Title: Brother Bear 2006 1080p BluRay x264 2Audio - alrmothe


Audio#1 
Format: DTS
Format/Info: Digital Theater Systems
Mode: 16
Format settings, Endianness: Big
Codec ID: A_DTS
Bit rate mode: Constant
Bit rate : 1509 Kbps
Channel(s) : 6 channels
Channel positions:Front: L C R, Side: L R, LFE
Sampling rate: 48.0 KHz
Bit depth: 24 bits
Compression mode: Lossy
Stream size: 793 MiB (17%)
Language : English

Audio #2
Format : AC-3
Bit rate : 192 Kbps
Channel(s) : 2 channels
Channel positions : Front: L R

Sampling rate : 48.0 KHz
Bit depth : 16 bits
Compression mode : Lossy
Stream size : 101 MiB (2%)
Title : Arabic , AC3 192 kbps
Language : Arabic


*********************************************************************

Screenshots 
http://img689.imageshack.us/img689/1928/vlcsnap2013040420h13m09.png 
http://img52.imageshack.us/img52/9688/vlcsnap2013040420h13m23.png 
http://img694.imageshack.us/img694/9100/vlcsnap2013040420h13m35.png 
http://img542.imageshack.us/img542/2847/vlcsnap2013040420h13m50.png 
http://img585.imageshack.us/img585/1826/vlcsnap2013040410h17m18.png 
http://img718.imageshack.us/img718/58/vlcsnap2013040410h17m49.png 
http://img507.imageshack.us/img507/5056/vlcsnap2013040410h18m07.png 
http://img819.imageshack.us/img819/5055/vlcsnap2013040410h14m16.png 
http://img703.imageshack.us/img703/920/vlcsnap2013040410h15m00.png
